#!OML:ASF F:\VICON\USERDATA\Patient Classification 1\PLAYGROUND\JustinFriday\JustinFriday.ASF
:FULLY-SPECIFIED
:DEGREES
2717
root 23.615 17.8061 47.9085 194.279 39.2444 -164.278
lowerback 6.56117 2.82771 2.30934
upperback 7.4036 4.59871 7.67874
thorax 3.57665 2.59255 6.60633
lowerneck -11.8961 1.5424 -14.6798
upperneck -3.53477 4.30898 6.487
head 0.390335 2.58928 4.46817
rclavicle -4.05521e-014 -3.18055e-014
rhumerus -7.53964 5.00809 -70.8974
rradius 35.9329
rwrist -12.6083
rhand -18.1459 -17.3003
rfingers 7.12502
rthumb 8.1295 -407.124
lclavicle -4.05521e-014 -3.18055e-014
lhumerus -35.5186 19.3709 89.9723
lradius 24.6792
lwrist -5.25162
lhand -9.57376 -6.09027
lfingers 7.12502
lthumb 16.3941 23.2369
rfemur 20.764 0.0522073 32.5667
rtibia 3.18055e-015
rfoot -8.82398 -12.7297
rtoes 1.98979
lfemur -33.6736 8.44123 -10.8877
ltibia 23.0377
lfoot -9.68349 10.5592
ltoes 6.67938
2718
root 23.6989 17.8234 47.7765 193.843 39.0824 -164.863
lowerback 6.22557 2.8564 1.98807
upperback 7.74821 4.58869 7.41066
thorax 4.12762 2.5693 6.55273
lowerneck -12.2603 1.39364 -15.021
upperneck -3.89444 4.25908 6.77094
head 0.332842 2.6069 4.61395
rclavicle -3.10104e-014 3.26007e-014
rhumerus -7.71452 4.92964 -71.1994
rradius 35.6179
rwrist -12.9205
rhand -18.983 -17.8214
rfingers 7.12502
rthumb 7.32152 -407.675
lclavicle -3.10104e-014 3.26007e-014
lhumerus -34.862 20.1608 89.9008
lradius 24.3992
lwrist -5.3109
lhand -9.0825 -7.59876
lfingers 7.12502
lthumb 16.867 21.6887
rfemur 21.2656 0.010423 32.0935
rtibia 4.13472e-014
rfoot -8.05471 -12.8928
rtoes -0.11489
lfemur -33.5934 8.88994 -11.7228
ltibia 23.4416
lfoot -9.3243 9.67915
ltoes 5.89952
2719
root 23.7746 17.8343 47.6372 193.687 38.749 -165.166
lowerback 5.76463 2.8255 2.10132
upperback 8.05984 4.51503 7.13866
thorax 4.75343 2.5358 6.26156
lowerneck -12.4898 1.23995 -15.2249
upperneck -4.47103 4.18176 7.00562
head 0.197379 2.61828 4.71811
rclavicle 3.37934e-014 -3.65764e-014
rhumerus -7.75816 4.4429 -71.6262
rradius 35.1015
rwrist -13.5533
rhand -19.6869 -19.4657
rfingers 7.12502
rthumb 6.64211 -409.342
lclavicle 3.37934e-014 -3.65764e-014
lhumerus -34.0741 20.0568 90.2759
lradius 24.0608
lwrist -5.31367
lhand -10.3175 -7.85305
lfingers 7.12502
lthumb 15.6779 21.5318
rfemur 21.6183 -0.108973 31.8091
rtibia -1.90833e-014
rfoot -7.34424 -12.8156
rtoes -0.458694
lfemur -33.522 8.64568 -12.1002
ltibia 23.7756
lfoot -8.71317 9.29497
ltoes 4.91109
2720
root 23.8473 17.8408 47.491 193.502 38.3472 -165.575
lowerback 5.28445 2.76803 2.20204
upperback 8.32894 4.40328 6.83683
thorax 5.35073 2.48311 5.94526
lowerneck -13.053 1.01972 -15.4617
upperneck -4.47555 4.04035 7.38585
head 0.2888 2.57878 4.88339
rclavicle -9.93923e-015 -5.00937e-014
rhumerus -7.8347 3.75063 -71.9865
rradius 34.3751
rwrist -13.6195
rhand -19.4896 -19.4546
rfingers 7.12502
rthumb 6.83255 -409.324
lclavicle -9.93923e-015 -5.00937e-014
lhumerus -33.352 20.0814 90.5244
lradius 24.0325
lwrist -4.36512
lhand -10.47 -6.52251
lfingers 7.12502
lthumb 15.531 22.8738
rfemur 21.9149 -0.293094 31.3919
rtibia -1.27222e-014
rfoot -6.38644 -12.7149
rtoes -1.52852
lfemur -33.2677 7.98368 -12.4476
ltibia 23.8886
lfoot -8.50096 9.20412
ltoes 5.42634
2721
root 23.9213 17.8529 47.3478 193.336 37.9279 -165.719
lowerback 5.02243 2.70168 2.43425
upperback 8.63107 4.31125 6.61496
thorax 5.86354 2.45661 5.62665
lowerneck -13.4747 0.813143 -15.8961
upperneck -4.79685 3.9533 7.98413
head 0.252501 2.58912 5.14575
rclavicle 8.34896e-015 4.13472e-014
rhumerus -7.95118 3.16902 -72.3264
rradius 33.5833
rwrist -13.2996
rhand -18.3279 -18.4123
rfingers 7.12502
rthumb 7.95383 -408.243
lclavicle 8.34896e-015 4.13472e-014
lhumerus -32.6495 20.4166 90.6326
lradius 24.1453
lwrist -3.16528
lhand -10.093 -5.59355
lfingers 7.12502
lthumb 15.8941 23.7742
rfemur 22.3422 -0.487273 31.2466
rtibia 6.67916e-014
rfoot -4.83682 -12.8328
rtoes -3.94792
lfemur -32.7351 7.69703 -12.6471
ltibia 23.8673
lfoot -7.99744 9.2557
ltoes 5.39584
2722
root 24.0016 17.8791 47.216 193.043 37.6008 -166.563
lowerback 4.52926 2.69292 1.89619
upperback 8.82634 4.24925 6.2744
thorax 6.34572 2.38671 5.61913
lowerneck -13.4791 0.657425 -16.224
upperneck -5.68069 3.89763 8.44794
head -0.0131052 2.63198 5.3389
rclavicle -2.62396e-014 3.02153e-014
rhumerus -8.07636 2.56904 -72.7342
rradius 32.673
rwrist -12.9812
rhand -20.0034 -19.2221
rfingers 7.12502
rthumb 6.33656 -409.107
lclavicle -2.62396e-014 3.02153e-014
lhumerus -31.9916 20.5396 90.8544
lradius 23.6901
lwrist -2.95059
lhand -11.7442 -8.22063
lfingers 7.12502
lthumb 14.3034 21.2667
rfemur 19.7034 -0.649562 30.5094
rtibia 5.5008
rfoot -6.19844 -13.1088
rtoes -5.57441
lfemur -32.6564 7.82584 -13.6442
ltibia 23.7734
lfoot -7.94552 8.10072
ltoes 6.95044
2723
root 24.0645 17.8867 47.0381 192.923 36.875 -166.958
lowerback 3.71042 2.48117 2.39266
upperback 9.08843 3.92072 5.90184
thorax 7.18149 2.25388 5.02907
lowerneck -13.6118 0.556782 -16.2686
upperneck -6.20097 3.8669 8.72343
head -0.145638 2.66217 5.43334
rclavicle -1.94809e-014 1.17681e-013
rhumerus -8.13117 1.66384 -73.149
rradius 31.4812
rwrist -12.4957
rhand -19.2901 -19.0134
rfingers 7.12502
rthumb 7.02508 -408.877
lclavicle -1.94809e-014 1.17681e-013
lhumerus -31.3911 20.4796 91.0643
lradius 23.671
lwrist -1.88254
lhand -12.4864 -9.45437
lfingers 7.12502
lthumb 13.5882 20.0822
rfemur 17.6619 -1.11835 30.02
rtibia 9.96036
rfoot -7.32614 -12.9662
rtoes -6.27318
lfemur -32.449 6.72707 -13.9794
ltibia 23.8553
lfoot -7.82394 8.52924
ltoes 7.02081
2724
root 24.132 17.9038 46.8895 192.941 36.4638 -167.106
lowerback 3.1072 2.40808 2.72533
upperback 9.3468 3.79208 5.61213
thorax 7.86101 2.21695 4.60115
lowerneck -13.688 0.517025 -16.4372
upperneck -6.93415 3.96115 9.17691
head -0.368693 2.77191 5.60601
rclavicle -9.74045e-014 -7.95139e-015
rhumerus -8.05931 0.830351 -73.5275
rradius 30.2794
rwrist -12.5123
rhand -19.6137 -17.4885
rfingers 7.12502
rthumb 6.71274 -407.362
lclavicle -9.74045e-014 -7.95139e-015
lhumerus -30.7637 20.3783 91.3121
lradius 24.1156
lwrist -0.108299
lhand -12.8004 -7.97465
lfingers 7.12502
lthumb 13.2856 21.5819
rfemur 15.916 -1.27187 29.775
rtibia 13.6856
rfoot -7.88948 -12.1929
rtoes -5.55375
lfemur -32.052 6.08285 -14.0641
ltibia 23.9133
lfoot -7.49203 8.84924
ltoes 6.38582
2725
root 24.21 17.9327 46.7657 192.519 36.3678 -167.303
lowerback 3.25293 2.43196 2.54014
upperback 9.63496 3.86041 5.4126
thorax 8.09025 2.2535 4.50737
lowerneck -14.2369 0.169549 -16.66
upperneck -6.41674 3.59598 9.64177
head -0.0914259 2.5935 5.79622
rclavicle 3.16068e-014 6.36111e-015
rhumerus -8.00507 0.0243776 -73.949
rradius 29.15
rwrist -12.2283
rhand -17.8079 -17.2239
rfingers 7.12502
rthumb 8.45577 -407.035
lclavicle 3.16068e-014 6.36111e-015
lhumerus -30.1319 20.3533 91.5802
lradius 24.3641
lwrist 1.60181
lhand -12.6472 -6.10355
lfingers 7.12502
lthumb 13.4333 23.4433
rfemur 14.8336 -1.23252 29.5294
rtibia 16.9043
rfoot -6.51685 -13.3083
rtoes -7.49017
lfemur -31.2655 7.10656 -14.5638
ltibia 24.2156
lfoot -7.07821 7.32087
ltoes 7.1463
